<svg xmlns="http://www.w3.org/2000/svg" viewBox="0 0 100 100" fill="none">
  <!-- Modern link/chain icon representing "Lien" (link in French) -->
  <defs>
    <linearGradient id="grad" x1="0%" y1="0%" x2="100%" y2="100%">
      <stop offset="0%" style="stop-color:#646cff;stop-opacity:1" />
      <stop offset="100%" style="stop-color:#4a9eff;stop-opacity:1" />
    </linearGradient>
  </defs>
  
  <!-- Left link -->
  <path d="M 25 35 A 10 10 0 0 1 35 25 L 45 25 A 10 10 0 0 1 55 35 L 55 45 A 10 10 0 0 1 45 55 L 35 55 A 10 10 0 0 1 25 45 Z" 
        fill="url(#grad)" opacity="0.9"/>
  
  <!-- Right link -->
  <path d="M 45 55 A 10 10 0 0 1 55 45 L 65 45 A 10 10 0 0 1 75 55 L 75 65 A 10 10 0 0 1 65 75 L 55 75 A 10 10 0 0 1 45 65 Z" 
        fill="url(#grad)"/>
  
  <!-- Connection line -->
  <rect x="42" y="42" width="16" height="16" fill="url(#grad)" rx="3"/>
</svg>

